<?xml version="1.0" encoding="utf-8"?>
<!-- Generator: Adobe Illustrator 23.0.2, SVG Export Plug-In . SVG Version: 6.00 Build 0)  -->
<svg version="1.1" id="Layer_1" xmlns="http://www.w3.org/2000/svg" xmlns:xlink="http://www.w3.org/1999/xlink" x="0px" y="0px"
	 viewBox="0 0 309.1 91.3" enable-background="new 0 0 309.1 91.3" xml:space="preserve">
<g display="none">
	<defs>
		<polyline id="SVGID_1_" points="-42.3,-21.7 -42.3,113 344.1,113 		"/>
	</defs>
	<clipPath id="SVGID_2_" display="inline">
		<use xlink:href="#SVGID_1_"  overflow="visible"/>
	</clipPath>
</g>
<g>
	<polygon fill="#999999" points="0,10.8 0,26.9 14.1,16.2 21.1,26.9 35.1,16.2 42.2,26.9 56.2,16.2 56.2,0 42.2,10.8 35.1,0 
		21.1,10.8 14.1,0 0,10.8 0,10.8 	"/>
	<polygon fill="#999999" points="0,43.1 0,59.3 14.1,48.5 21.1,59.3 35.1,48.5 42.2,59.3 56.2,48.5 56.2,32.3 42.2,43.1 35.1,32.3 
		21.1,43.1 14.1,32.3 0,43.1 0,43.1 	"/>
	<polygon fill="#999999" points="0,75.4 0,91.6 14.1,80.8 21.1,91.6 35.1,80.8 42.2,91.6 56.2,80.8 56.2,64.7 42.2,75.4 35.1,64.7 
		21.1,75.4 14.1,64.7 0,75.4 0,75.4 	"/>
	<polygon fill="#999999" points="84.4,62 86.2,62 86.2,63.7 103.9,63.7 103.9,58.9 89.7,58.9 89.7,50.1 101,50.1 101,45.3 
		89.7,45.3 89.7,38.5 103.9,38.5 103.9,33.6 86.2,33.6 86.2,35.3 84.4,35.3 84.4,62 	"/>
	<polygon fill="#999999" points="110.1,63.7 115.3,63.7 115.3,33.6 110.1,33.6 110.1,63.7 	"/>
	<polygon fill="#999999" points="139.7,63.7 144.7,63.7 144.7,33.6 139.7,33.6 139.7,52.1 127.5,33.6 122.4,33.6 122.4,63.7 
		127.3,63.7 127.3,42 139.7,60.8 139.7,63.7 	"/>
	<path fill="#999999" d="M174.2,48.7c0-6.7-3.1-10.8-6.7-13.3h-1.7v-1.7h-12.8v1.7h-1.7V62h1.7v1.7h12.8V62h1.7
		C171.1,59.4,174.2,55.3,174.2,48.7L174.2,48.7z M168.9,48.7c0,5-2.1,7.9-5.1,10.2h-7.3V38.5h7.3C166.7,40.8,168.9,43.7,168.9,48.7
		L168.9,48.7z"/>
	<polygon fill="#999999" points="195.7,63.7 200.9,63.7 200.9,33.6 195.7,33.6 195.7,45.4 183.8,45.4 183.8,33.6 178.6,33.6 
		178.6,63.7 183.8,63.7 183.8,50.2 195.7,50.2 195.7,63.7 	"/>
	<path fill="#999999" d="M228.9,59.4V37.9h-1.7v-1.7c-2.1-1.6-5.2-3.1-9.2-3.1c-4,0-7.1,1.4-9.2,3.1v1.7h-1.7v21.5h1.7v1.7
		c2.1,1.6,5.2,3.1,9.2,3.1c4,0,7.1-1.4,9.2-3.1v-1.7H228.9L228.9,59.4z M223.7,57.9c-1.6,0.8-3.6,1.4-5.7,1.4
		c-2.1,0-4.1-0.6-5.7-1.4V39.4c1.6-0.9,3.6-1.4,5.7-1.4c2.1,0,4,0.6,5.7,1.4V57.9L223.7,57.9z"/>
	<polygon fill="#999999" points="247.5,64 257.8,33.6 252.5,33.6 244.9,57.4 237.4,33.6 231.9,33.6 242.1,64 244.9,63.2 247.5,64 	
		"/>
	<polygon fill="#999999" points="261.8,62 263.5,62 263.5,63.7 281.2,63.7 281.2,58.9 267,58.9 267,50.1 278.3,50.1 278.3,45.3 
		267,45.3 267,38.5 281.2,38.5 281.2,33.6 263.5,33.6 263.5,35.3 261.8,35.3 261.8,62 	"/>
	<polygon fill="#999999" points="304.2,63.7 309.1,63.7 309.1,33.6 304.2,33.6 304.2,52.1 292,33.6 286.8,33.6 286.8,63.7 
		291.7,63.7 291.7,42 304.2,60.8 304.2,63.7 	"/>
</g>
</svg>
