<?xml version="1.0" encoding="utf-8"?>
<!-- Generator: Adobe Illustrator 23.0.2, SVG Export Plug-In . SVG Version: 6.00 Build 0)  -->
<svg version="1.1" id="Laag_1" xmlns="http://www.w3.org/2000/svg" xmlns:xlink="http://www.w3.org/1999/xlink" x="0px" y="0px"
	 viewBox="0 0 27.3 6.9" style="enable-background:new 0 0 27.3 6.9;" xml:space="preserve">
<style type="text/css">
	.st0{fill:#999999;}
</style>
<g>
	<path class="st0" d="M2.3,2.8C2.2,3.5,1.6,3.6,1.2,3.6C0.6,3.6,0,3.3,0,2.4c0-1,0.6-1.3,1.2-1.3c0.5,0,1.2,0.3,1.2,1.3v0.1H0.7
		c0,0.4,0.2,0.7,0.5,0.7c0.3,0,0.4-0.1,0.5-0.4L2.3,2.8L2.3,2.8z M1.7,2.1c0-0.3-0.2-0.5-0.5-0.5S0.7,1.8,0.7,2.1H1.7z"/>
	<path class="st0" d="M2.8,0h0.7v0.6H2.8V0z M2.9,1.2h0.7v2.4H2.9V1.2z"/>
	<path class="st0" d="M4.2,1.2h0.6v0.3c0.1-0.2,0.4-0.4,0.8-0.4c0.4,0,0.8,0.2,0.8,1v1.5H5.8V2.2c0-0.3-0.1-0.5-0.4-0.5
		C5.1,1.7,5,1.8,4.9,1.9v1.7H4.2L4.2,1.2C4.2,1.2,4.2,1.2,4.2,1.2z"/>
	<path class="st0" d="M8.7,3.3C8.6,3.5,8.3,3.6,8,3.6c-0.5,0-1-0.3-1-1.3c0-0.9,0.5-1.3,1-1.3c0.3,0,0.6,0.2,0.6,0.3V0h0.7v3.6H8.7
		V3.3z M8.6,1.8C8.5,1.7,8.3,1.7,8.2,1.7c-0.4,0-0.5,0.2-0.5,0.7s0.2,0.7,0.5,0.7c0.2,0,0.3-0.1,0.4-0.2V1.8z"/>
	<path class="st0" d="M9.9,0h0.7v1.4c0.1-0.2,0.3-0.3,0.7-0.3c0.4,0,0.8,0.2,0.8,1v1.5h-0.7V2.2c0-0.3-0.1-0.5-0.4-0.5
		c-0.2,0-0.4,0.1-0.5,0.2v1.7H10L9.9,0L9.9,0z"/>
	<path class="st0" d="M12.7,2.4c0-1,0.6-1.3,1.2-1.3c0.6,0,1.2,0.3,1.2,1.3s-0.6,1.3-1.2,1.3S12.7,3.4,12.7,2.4z M14.4,2.4
		c0-0.5-0.2-0.7-0.5-0.7c-0.3,0-0.5,0.2-0.5,0.7c0,0.5,0.2,0.7,0.5,0.7C14.2,3.1,14.4,2.8,14.4,2.4z"/>
	<path class="st0" d="M15.3,1.2h0.7l0.5,1.7l0.5-1.7h0.7l-0.9,2.4h-0.7L15.3,1.2z"/>
	<path class="st0" d="M20.3,2.8c-0.1,0.7-0.7,0.9-1.1,0.9c-0.6,0-1.2-0.3-1.2-1.3c0-1,0.6-1.3,1.2-1.3c0.5,0,1.2,0.3,1.2,1.3v0.1
		h-1.7c0,0.4,0.2,0.7,0.5,0.7c0.3,0,0.4-0.1,0.5-0.4L20.3,2.8L20.3,2.8z M19.7,2.1c0-0.3-0.2-0.5-0.5-0.5c-0.3,0-0.5,0.2-0.5,0.5
		H19.7z"/>
	<path class="st0" d="M20.9,1.2h0.6v0.3c0.1-0.2,0.4-0.4,0.8-0.4c0.4,0,0.8,0.2,0.8,1v1.5h-0.7V2.2c0-0.3-0.1-0.5-0.4-0.5
		c-0.2,0-0.4,0.1-0.5,0.2v1.7h-0.7L20.9,1.2L20.9,1.2L20.9,1.2z"/>
	<path class="st0" d="M8.6,4.4h0.6v0.3c0.1-0.2,0.3-0.4,0.7-0.4c0.3,0,0.5,0.1,0.7,0.4c0.1-0.2,0.4-0.4,0.8-0.4s0.8,0.2,0.8,1v1.5
		h-0.7V5.4c0-0.3-0.1-0.5-0.4-0.5c-0.2,0-0.3,0.1-0.4,0.2c0,0.1,0,0.1,0,0.2v1.5H10V5.4c0-0.3-0.1-0.5-0.4-0.5
		C9.5,4.9,9.3,5,9.2,5.1v1.7H8.6L8.6,4.4C8.6,4.4,8.6,4.4,8.6,4.4z"/>
	<path class="st0" d="M12.8,4.4h0.7v1.4c0,0.3,0.1,0.5,0.4,0.5c0.2,0,0.4-0.1,0.5-0.2V4.4h0.7v2.4h-0.6V6.5
		c-0.1,0.2-0.4,0.4-0.8,0.4s-0.8-0.2-0.8-1L12.8,4.4L12.8,4.4L12.8,4.4z"/>
	<path class="st0" d="M16.1,6c0,0.2,0.2,0.4,0.5,0.4c0.2,0,0.4-0.1,0.4-0.3c0-0.2-0.3-0.2-0.7-0.4c-0.3-0.1-0.7-0.2-0.7-0.7
		c0-0.5,0.5-0.7,1-0.7c0.6,0,1,0.2,1,0.8h-0.7c0-0.2-0.2-0.3-0.4-0.3c-0.2,0-0.3,0.1-0.3,0.2c0,0.2,0.3,0.2,0.7,0.3
		c0.4,0.1,0.7,0.3,0.7,0.7c0,0.6-0.5,0.8-1.1,0.8c-0.6,0-1.1-0.3-1.1-0.8L16.1,6L16.1,6L16.1,6z"/>
	<path class="st0" d="M20.3,6c-0.1,0.7-0.7,0.9-1.1,0.9c-0.6,0-1.2-0.3-1.2-1.3c0-1,0.6-1.3,1.2-1.3c0.5,0,1.2,0.3,1.2,1.3v0.1h-1.7
		c0,0.4,0.2,0.7,0.5,0.7c0.3,0,0.4-0.1,0.5-0.4C19.7,6,20.3,6,20.3,6z M19.7,5.3c0-0.3-0.2-0.5-0.5-0.5c-0.3,0-0.5,0.2-0.5,0.5H19.7
		z"/>
	<path class="st0" d="M20.9,4.4h0.7v1.4c0,0.3,0.1,0.5,0.4,0.5c0.2,0,0.4-0.1,0.5-0.2V4.4h0.7v2.4h-0.6V6.5
		c-0.1,0.2-0.4,0.4-0.8,0.4c-0.4,0-0.8-0.2-0.8-1L20.9,4.4L20.9,4.4L20.9,4.4z"/>
	<path class="st0" d="M23.7,4.4h0.6v0.3c0.1-0.2,0.4-0.4,0.7-0.4c0.3,0,0.5,0.1,0.7,0.4c0.1-0.2,0.4-0.4,0.8-0.4
		c0.4,0,0.8,0.2,0.8,1v1.5h-0.7V5.4c0-0.3-0.1-0.5-0.4-0.5c-0.2,0-0.4,0.1-0.4,0.2c0,0.1,0,0.1,0,0.2v1.5h-0.7V5.4
		c0-0.3-0.1-0.5-0.4-0.5c-0.2,0-0.4,0.1-0.4,0.2v1.7h-0.7L23.7,4.4C23.7,4.4,23.7,4.4,23.7,4.4z"/>
</g>
</svg>
